<svg xmlns="http://www.w3.org/2000/svg" id="Layer_1" data-name="Layer 1" viewBox="0 0 396.2 388.76"><defs><style>.cls-1{fill:#483831;}.cls-2{fill:#ecba4f;}.cls-3{fill:#fff;}</style></defs><path class="cls-1" d="M324.24,383.58H71.55c-16.18-1.42-29.5-9.17-40.74-20.11-12.43-12.11-20.6-26.79-21.68-44.65a1.65,1.65,0,0,0-.38-1V72.53A64.3,64.3,0,0,1,18.65,42C33.82,18.26,55.31,5.38,83.75,5.33c76.07-.11,152.15,0,228.22-.08,20.51,0,38.25,7,52.77,21.13s22.69,31.32,22.68,52q-.07,116.33,0,232.65c0,17.68-5.92,32.94-16.9,46.52-8.57,10.6-19.37,18-32,23C333.92,382.39,329.05,382.75,324.24,383.58Z"></path><path class="cls-2" d="M38.3,194.79q0-55.77,0-111.54c0-27.81,19.82-47.66,47.59-47.66q112.1,0,224.18,0c27.53,0,47.4,19.9,47.4,47.5q0,112.08,0,224.18c0,27.57-19.89,47.49-47.42,47.49q-112.08,0-224.18,0c-27.75,0-47.57-19.88-47.57-47.69Q38.28,250.93,38.3,194.79Z"></path><path class="cls-3" d="M183.12,210v-4.82q0-55.4,0-110.81c0-11.51,10.78-18.94,20.79-14.3C210,82.9,212.7,88,212.69,94.63q-.06,55,0,110.08v4.47c1.46.09,1.91-1.12,2.61-1.82,12.13-12.08,24.16-24.25,36.35-36.26,8.4-8.27,21.6-5.15,24.86,5.81,1.59,5.33.59,10.36-3.38,14.35-19.45,19.55-38.83,39.18-58.56,58.44-9.64,9.41-24.7,8.68-34.58-1.12Q153.22,222,126.66,195.32c-1.22-1.22-2.46-2.41-3.65-3.66-5.82-6.14-5.85-15.1-.09-20.9s14.7-6,20.86,0c8.14,7.88,16.06,16,24.07,24C172.73,199.59,177.59,204.47,183.12,210Z"></path><path class="cls-3" d="M197.9,280.56q31.2,0,62.42,0c4.15,0,8.1.52,11.4,3.34,4.79,4.09,6.35,9.29,4.93,15.28a14.29,14.29,0,0,1-12.28,10.72,30,30,0,0,1-3.68.22H135.1c-10.4,0-17-6.52-16.37-16.07a14.44,14.44,0,0,1,12.32-13.21,42.41,42.41,0,0,1,5.53-.26Q167.24,280.54,197.9,280.56Z"></path></svg>