<svg xmlns="http://www.w3.org/2000/svg" id="Layer_1" data-name="Layer 1" viewBox="0 0 359.17 356.7"><defs><style>.cls-1{fill:#483831;}.cls-2{fill:#ecba4f;}.cls-3{fill:#fff;}</style></defs><path class="cls-1" d="M353.84,177.81V331.73c0,13.13-6.78,20-19.8,20H25.11c-12.87,0-19.78-6.86-19.78-19.63V22.78c0-12.61,6.92-19.59,19.43-19.59H334.42c12.5,0,19.42,7,19.42,19.61Z"></path><path class="cls-2" d="M179.65,14.8h153.9c7.27,0,9.8,3,8.71,10.19-.16,1.06-.45,1.49-1.51,1.44s-1.94,0-2.9,0q-117.8,0-235.57-.08c-3.24,0-4.22.72-4.1,4.06.27,7.63.08,7.63,7.7,7.63Q222,38,338.18,38c3.19,0,4.13.65,4.13,4q-.17,144.64-.09,289.29c0,7.35-1.48,8.8-9,8.8H25.82c-7.41,0-8.88-1.47-8.88-8.89V23.39c0-7,1.57-8.59,8.45-8.59Z"></path><path class="cls-1" d="M270.63,154.21c7.64,5.58,14.45,10.57,21.29,15.52,2.49,1.8,4.51,3.84,3.63,7.22s-3.57,4.28-6.65,4.57c-4,.37-7.94.87-11.92,1.16-2.36.17-2.65.94-1.84,3.16,3.26,9,3.18,9,12.74,9,8,0,16,0,24,0,5,0,7.12,2.08,7.14,7q0,16.34,0,32.67c0,4.68-2.19,6.8-7,6.8q-132.49,0-265,0c-4.7,0-6.81-2.16-6.83-6.91,0-10.65,0-21.3,0-31.95,0-5.68,1.92-7.59,7.62-7.59q84,0,168.07.07c2.93,0,4.08-.67,4.74-3.7,2.49-11.31,5.29-22.56,8.15-33.78.7-2.75.16-3.33-2.7-3.32q-88.56.13-177.14.07c-7.2,0-8.74-1.53-8.74-8.67q0-15.06,0-30.13c0-5.74,1.89-7.67,7.54-7.67h263.9c5.4,0,7.35,2,7.36,7.5q0,15.78,0,31.58c0,5.41-2,7.37-7.47,7.38C298.22,154.22,284.94,154.21,270.63,154.21Z"></path><path class="cls-1" d="M179.72,328.46H48.35c-6.45,0-8.17-1.71-8.17-8.13q0-15.6,0-31.21c0-5,2.06-7.12,7-7.12q132.45,0,264.91,0c4.74,0,6.88,2.12,6.89,6.84q.06,16.14,0,32.3c0,5.35-2,7.31-7.54,7.31Q245.59,328.48,179.72,328.46Z"></path><path class="cls-1" d="M179.58,61.27c20.2,0,40.41.06,60.62-.07,2.69,0,3.41.6,3.35,3.33-.17,8.35,0,8.36-8.43,8.36q-57.88,0-115.79.07c-3,0-3.81-.66-3.72-3.7.23-8,.07-8,8.07-8Z"></path><path class="cls-1" d="M80.84,183.25c-12.58,0-25.17-.07-37.75.06-2.36,0-3-.59-3-3,.06-8.71,0-8.71,8.79-8.71,23.1,0,46.21.05,69.32-.07,2.7,0,3.41.61,3.35,3.34-.17,8.35,0,8.35-8.43,8.35Z"></path><path class="cls-1" d="M81.2,258.76c12.46,0,24.93.07,37.39-.06,2.36,0,3,.6,3,3,0,8.71,0,8.71-8.78,8.71-23.11,0-46.22-.05-69.33.07-2.71,0-3.4-.62-3.35-3.34.17-8.35,0-8.35,8.44-8.35Z"></path><path class="cls-1" d="M66,84.5c8,0,16,.08,24,0,2.09,0,2.56.61,2.58,2.62.1,9.05.16,9.05-8.8,9.05-13.55,0-27.1-.06-40.65.06-2.41,0-3-.67-2.94-3,.05-8.69,0-8.69,8.8-8.69Z"></path><path class="cls-1" d="M40.18,31.94c0,6.09,0,6.1-6.25,6.09-5.37,0-5.37,0-5.37-5.52,0-6.09,0-6.09,6.25-6.09C40.18,26.42,40.18,26.42,40.18,31.94Z"></path><path class="cls-1" d="M57.63,26.42c5.78,0,5.78,0,5.78,5.84s0,5.77-5.84,5.77-5.78,0-5.78-5.83S51.8,26.42,57.63,26.42Z"></path><path class="cls-1" d="M80.85,26.42c5.8,0,5.8,0,5.8,5.82s0,5.79-5.82,5.79S75,38,75,32.21,75,26.42,80.85,26.42Z"></path><path class="cls-3" d="M233.69,186.29c3.16-13.13,6.11-25.4,9.14-38l31.45,23-7.75,1c-5.26.66-7.3,3.88-5.47,8.92,4.16,11.43,8.33,22.86,12.67,34.21.92,2.41.31,3.23-1.92,4-8,2.9-7.95,3-10.95-5.2q-5.3-14.41-10.64-28.8c-2.05-5.48-5.51-6.55-10.4-3.3C238,183.32,236.25,184.55,233.69,186.29Z"></path></svg>