<svg xmlns="http://www.w3.org/2000/svg" id="Layer_1" data-name="Layer 1" viewBox="0 0 391.46 383.09"><defs><style>.cls-1{fill:#483831;}.cls-2{fill:#ecba4f;}</style></defs><path class="cls-1" d="M252.31,357.9a180.08,180.08,0,0,0,19.72.42c13-.56,23-6.3,30.11-17.13a133.72,133.72,0,0,0,9.23-16.95,34.29,34.29,0,0,1,17.46-17.3c4.3-2,8.43-4.3,12.59-6.57,14.47-7.89,21.83-20,21.39-36.58-.15-6-.28-11.94-.56-17.9a29.66,29.66,0,0,1,4.76-18c3.89-6,8-11.92,11.27-18.32,6.2-12,6.22-24,.05-36a177.57,177.57,0,0,0-10.69-17.38,31.83,31.83,0,0,1-5.39-20c.35-6.93.72-13.86.43-20.81-.53-13.19-6.51-23.16-17.46-30.32-6.21-4.07-13-7.13-19.52-10.59A29.15,29.15,0,0,1,313,61.78c-2.6-5.08-5.3-10.11-7.95-15.16-8.45-16.11-21.92-23.08-39.87-22-5,.3-10,.3-15,.56a29,29,0,0,1-18-4.77c-5.49-3.59-11.05-7.1-16.73-10.37-13.44-7.72-26.9-7.28-40.16.47-5,2.94-10,6-14.82,9.31a31.6,31.6,0,0,1-20,5.38c-6.92-.32-13.85-.74-20.81-.44-13,.57-22.92,6.4-30.09,17.19-4,6.1-7.11,12.72-10.45,19.19A31.69,31.69,0,0,1,65.18,75C58,78.74,50.52,82.05,43.94,87c-9.3,6.92-14.09,16.14-14.78,27.65-.45,7.56.14,15.09.4,22.63a29.12,29.12,0,0,1-4.83,18c-.41.6-.78,1.24-1.18,1.85-6.07,9.21-12.21,18.38-14.75,29.36v10.23c2.58,10.95,8.52,20.24,14.78,29.31a33.16,33.16,0,0,1,5.93,22c-.42,5.69-.46,11.42-.51,17.14-.12,15.88,7.21,27.36,20.94,34.94,5.21,2.87,10.45,5.67,15.76,8.34a29.16,29.16,0,0,1,13.21,13.11c2.59,5.08,5.31,10.08,8,15.13,8.39,16,21.82,22.79,39.57,21.83,4.85-.27,9.73-.26,14.58-.57a30.64,30.64,0,0,1,19.31,5.23c5.68,3.73,11.31,7.53,17.36,10.69,4,2.08,8.36,2.92,12.36,4.82h10.24c11.34-2.18,20.72-8.42,30-14.76A33.72,33.72,0,0,1,252.31,357.9ZM111.74,213.41a27,27,0,0,1-5.47,0c-3-.38-4.07.43-4,3.81.23,15.33.08,30.68.12,46,0,2.4-.32,4.64-2.09,6.38-2.17,2.13-4.73,2.94-7.68,1.8a7,7,0,0,1-4.84-7c-.05-8.16,0-16.32,0-24.47,0-7.92-.1-15.83.05-23.74,0-2.25-.5-3-2.79-2.81a37.94,37.94,0,0,1-6.57,0,7.26,7.26,0,0,1-6.75-7.29,7.06,7.06,0,0,1,6.82-7.18q16.62-.24,33.24,0a6.94,6.94,0,0,1,6.74,7.22A7.15,7.15,0,0,1,111.74,213.41Zm13.86-59c-3.77.06-7.55.11-11.32,0-1.91-.07-2.5.5-2.47,2.44.11,6.32.07,12.65,0,19,0,5.18-3,8.55-7.46,8.45s-7.12-3.36-7.13-8.41c0-9.37,0-18.73,0-28.1s0-18.49,0-27.73c0-6.22,2.64-8.81,8.92-8.82,7,0,14.11-.05,21.16,0,5,0,8.16,2.91,8.13,7.35s-3.15,7.2-8.23,7.25c-4.38,0-8.76.08-13.14,0-1.71,0-2.35.39-2.27,2.2.15,3.28.12,6.57,0,9.85-.06,1.61.49,2.08,2.07,2,3.89-.1,7.78-.09,11.67,0,4.85.1,8.24,3.28,8.13,7.5S130.37,154.3,125.6,154.38Zm44.87,105c3.91,4.58,2.27,10.78-3.17,12.28-3.33.92-5.89-.48-8.05-3-5.84-6.66-11.71-13.29-18.16-20.61,0,5.9,0,10.87,0,15.84-.06,4.71-3,7.92-7.18,8s-7.4-3.22-7.41-8.14q0-28.48,0-57c0-5,2.93-7.92,7.94-7.94,6.08,0,12.23-.42,18.24.3,10.44,1.24,18.58,9.47,19.8,19.06,1.33,10.51-4.07,19.46-14.49,24-.53.23-1,.51-1.79.88C161,248.59,165.83,253.92,170.47,259.37Zm8.59-78.08-15.93-18.08-2.44-2.78c0,5.94.12,11,0,16-.16,5.37-4.64,8.93-9.27,7.47-3.18-1-5.23-3.2-5.24-6.67q-.07-29.58,0-59.16c0-3.59,2.5-6.61,5.94-6.77,6.92-.33,13.92-.87,20.77.24a22.62,22.62,0,0,1,19.28,19.62c1.19,9.82-4.45,18.84-14.55,23.28-.54.24-1.05.52-1.84.91,4.68,5.32,9.23,10.53,13.82,15.7,2,2.2,3.27,4.6,2.43,7.62a7.13,7.13,0,0,1-5.47,5.33C183.51,184.74,181.05,183.55,179.06,181.29Zm18.63,82.53c-.09,6.18-5.16,9.73-10.24,7.41a6.89,6.89,0,0,1-4.28-6.64c0-19.46-.09-38.91,0-58.37a7.06,7.06,0,0,1,7.38-7.36c4.07.09,7,3.08,7.09,7.68.13,9.61,0,19.22,0,28.82h0C197.72,244.85,197.82,254.34,197.69,263.82Zm98.61-6.45a77.06,77.06,0,0,1,9.12-.05c4.24.13,7.26,3.06,7.4,7a7.25,7.25,0,0,1-7.28,7.53q-10.21.22-20.45,0c-4.51-.1-7.28-3.16-7.32-7.83-.06-9.62,0-19.23,0-28.85,0-9.25,0-18.5,0-27.76,0-5.26,2.92-8.59,7.36-8.55s7.24,3.37,7.24,8.68c0,15.34.14,30.68-.09,46C292.22,257,293.27,257.63,296.3,257.37Zm-41-137.12c0-6.45,2.67-9.09,9.09-9.11,7.31,0,14.61,0,21.92,0,5,0,8.27,3,8.27,7.28s-3.27,7.27-8.24,7.32c-4.63,0-9.26.12-13.88,0-2.16-.08-2.7.68-2.59,2.7a81.78,81.78,0,0,1,0,9.13c-.14,2.2.44,3,2.78,2.89,4-.2,8-.1,12.06,0,4.81.06,7.93,2.88,8,7.13s-3.1,7.39-8.07,7.46c-4,.05-8,.1-12.05,0-2-.06-2.87.33-2.74,2.56.23,3.86-1.27,8.93.65,11.3s7.29.57,11.13.78c1.94.11,3.9-.06,5.84.06a7.29,7.29,0,0,1,7.11,7.32,7.11,7.11,0,0,1-6.86,7.17c-8.52.17-17.06.2-25.58,0-4.27-.1-6.81-3.41-6.84-8.33-.06-9.38,0-18.76,0-28.14C255.25,138.52,255.23,129.39,255.26,120.25Zm-51.17,27.07c0-9,0-18,0-27,0-6.48,2.65-9.12,9.06-9.14,7.31,0,14.62,0,21.93,0,5,0,8.27,2.94,8.29,7.26s-3.26,7.29-8.21,7.34c-4.63,0-9.26.11-13.89,0-2.11-.07-2.72.63-2.61,2.68a69.2,69.2,0,0,1,0,8.76c-.18,2.47.43,3.46,3.13,3.29,3.88-.25,7.79-.11,11.68-.05,5,.07,8.15,3.07,8.05,7.47-.1,4.24-3.23,7-8,7.12-4,.06-8,.1-12.06,0-1.92-.06-2.9.26-2.76,2.52.23,3.87-1.28,8.93.63,11.32s7.29.57,11.12.79c2.07.12,4.15-.09,6.21.08a7.27,7.27,0,0,1,6.77,7.28,7.1,7.1,0,0,1-6.84,7.19c-8.52.18-17.05.2-25.57,0-4.28-.1-6.84-3.4-6.87-8.31C204.05,166.32,204.09,156.82,204.09,147.32Zm18.62,112.36c-.71,2.31-1.7,4.54-2.62,6.78-1.86,4.52-5.5,6.44-9.45,5-4.18-1.52-5.92-5.49-4.16-10.15,6.28-16.67,12.66-33.31,19-50,.9-2.38,1.7-4.81,2.74-7.13a8.25,8.25,0,0,1,8-5.33,8,8,0,0,1,7.93,5.37q11,28.69,21.77,57.47a15.23,15.23,0,0,1,.55,2.58,7.56,7.56,0,0,1-5.67,7.45,7,7,0,0,1-8-3.73,70.77,70.77,0,0,1-3.2-8.11c-.58-1.71-1.36-2.52-3.35-2.48-6.81.14-13.62.11-20.43,0C224.1,257.44,223.23,258,222.71,259.68Z"></path><path class="cls-2" d="M172.47,218.23c-1.22-9.59-9.36-17.82-19.8-19.06-6-.72-12.16-.33-18.24-.3-5,0-7.93,2.93-7.94,7.94q-.08,28.49,0,57c0,4.92,3.09,8.21,7.41,8.14s7.12-3.28,7.18-8c.07-5,0-9.94,0-15.84,6.45,7.32,12.32,13.95,18.16,20.61,2.16,2.48,4.72,3.88,8.05,3,5.44-1.5,7.08-7.7,3.17-12.28-4.64-5.45-9.44-10.78-14.28-16.29.75-.37,1.26-.65,1.79-.88C168.4,237.69,173.8,228.74,172.47,218.23Zm-22.55,11c-8.79,1.13-8.79,1.13-8.8-7.92,0-8.18,0-8.18,8.2-7.79,4.87.23,8.51,3.41,8.66,7.57S154.91,228.54,149.92,229.18Z"></path><path class="cls-2" d="M186.53,184A7.13,7.13,0,0,0,192,178.7c.84-3-.48-5.42-2.43-7.62-4.59-5.17-9.14-10.38-13.82-15.7.79-.39,1.3-.67,1.84-.91,10.1-4.44,15.74-13.46,14.55-23.28a22.62,22.62,0,0,0-19.28-19.62c-6.85-1.11-13.85-.57-20.77-.24-3.44.16-5.92,3.18-5.94,6.77q-.12,29.58,0,59.16c0,3.47,2.06,5.65,5.24,6.67,4.63,1.46,9.11-2.1,9.27-7.47.16-5,0-10.09,0-16l2.44,2.78,15.93,18.08C181.05,183.55,183.51,184.74,186.53,184Zm-15.11-42.92c-3,.79-6,.38-9.08.49-1.7.07-1.59-1.07-1.59-2.19,0-3.4.21-6.83-.08-10.21-.26-2.95.8-3.91,3.58-3.46a10,10,0,0,0,1.82,0c2.05.07,4.12-.18,6.11.66,3.33,1.4,5.38,3.74,5.4,7.45C177.59,137.12,174.91,140.19,171.42,141.11Z"></path><path class="cls-2" d="M246.28,257.44c2,0,2.77.77,3.35,2.48a70.77,70.77,0,0,0,3.2,8.11,7,7,0,0,0,8,3.73,7.56,7.56,0,0,0,5.67-7.45,15.23,15.23,0,0,0-.55-2.58Q255.07,233,244.14,204.26a8,8,0,0,0-7.93-5.37,8.25,8.25,0,0,0-8,5.33c-1,2.32-1.84,4.75-2.74,7.13-6.35,16.65-12.73,33.29-19,50-1.76,4.66,0,8.63,4.16,10.15,4,1.44,7.59-.48,9.45-5,.92-2.24,1.91-4.47,2.62-6.78.52-1.7,1.39-2.24,3.14-2.22C232.66,257.55,239.47,257.58,246.28,257.44Zm-10.11-33.05,6.9,18.33H229.21Z"></path><path class="cls-2" d="M211,184.13c8.52.21,17.05.19,25.57,0a7.1,7.1,0,0,0,6.84-7.19,7.27,7.27,0,0,0-6.77-7.28c-2.06-.17-4.14,0-6.21-.08-3.83-.22-9.1,1.72-11.12-.79s-.4-7.45-.63-11.32c-.14-2.26.84-2.58,2.76-2.52,4,.12,8,.08,12.06,0,4.81-.07,7.94-2.88,8-7.12.1-4.4-3.09-7.4-8.05-7.47-3.89-.06-7.8-.2-11.68.05-2.7.17-3.31-.82-3.13-3.29a69.2,69.2,0,0,0,0-8.76c-.11-2,.5-2.75,2.61-2.68,4.63.15,9.26.09,13.89,0,5,0,8.24-3,8.21-7.34s-3.3-7.23-8.29-7.26c-7.31,0-14.62,0-21.93,0-6.41,0-9,2.66-9.06,9.14,0,9,0,18,0,27,0,9.5,0,19,0,28.5C204.14,180.73,206.7,184,211,184.13Z"></path><path class="cls-2" d="M255.27,175.8c0,4.92,2.57,8.23,6.84,8.33,8.52.21,17.06.18,25.58,0a7.11,7.11,0,0,0,6.86-7.17,7.29,7.29,0,0,0-7.11-7.32c-1.94-.12-3.9,0-5.84-.06-3.84-.21-9.11,1.71-11.13-.78s-.42-7.44-.65-11.3c-.13-2.23.78-2.62,2.74-2.56,4,.13,8,.08,12.05,0,5-.07,8.16-3.06,8.07-7.46s-3.21-7.07-8-7.13c-4-.06-8.05-.16-12.06,0-2.34.12-2.92-.69-2.78-2.89a81.78,81.78,0,0,0,0-9.13c-.11-2,.43-2.78,2.59-2.7,4.62.16,9.25.08,13.88,0,5,0,8.25-3,8.24-7.32s-3.28-7.25-8.27-7.28c-7.31,0-14.61,0-21.92,0-6.42,0-9.07,2.66-9.09,9.11,0,9.14,0,18.27,0,27.41C255.25,157,255.21,166.42,255.27,175.8Z"></path><path class="cls-2" d="M133.69,147.29c.11-4.22-3.28-7.4-8.13-7.5-3.89-.07-7.78-.08-11.67,0-1.58,0-2.13-.43-2.07-2,.11-3.28.14-6.57,0-9.85-.08-1.81.56-2.24,2.27-2.2,4.38.11,8.76.07,13.14,0,5.08,0,8.2-2.83,8.23-7.25s-3.09-7.31-8.13-7.35c-7-.05-14.11,0-21.16,0-6.28,0-8.9,2.6-8.92,8.82,0,9.24,0,18.49,0,27.73s0,18.73,0,28.1c0,5,2.83,8.31,7.13,8.41s7.43-3.27,7.46-8.45c0-6.32.08-12.65,0-19,0-1.94.56-2.51,2.47-2.44,3.77.14,7.55.09,11.32,0C130.37,154.3,133.58,151.44,133.69,147.29Z"></path><path class="cls-2" d="M111.74,198.93q-16.62-.24-33.24,0a7.06,7.06,0,0,0-6.82,7.18,7.26,7.26,0,0,0,6.75,7.29,37.94,37.94,0,0,0,6.57,0c2.29-.22,2.83.56,2.79,2.81-.15,7.91-.06,15.82-.05,23.74,0,8.15,0,16.31,0,24.47a7,7,0,0,0,4.84,7c3,1.14,5.51.33,7.68-1.8,1.77-1.74,2.1-4,2.09-6.38,0-15.34.11-30.69-.12-46,0-3.38,1-4.19,4-3.81a27,27,0,0,0,5.47,0,7.15,7.15,0,0,0,6.74-7.26A6.94,6.94,0,0,0,111.74,198.93Z"></path><path class="cls-2" d="M292.27,253.55c.23-15.33.11-30.67.09-46,0-5.31-2.82-8.64-7.24-8.68s-7.34,3.29-7.36,8.55c0,9.26,0,18.51,0,27.76,0,9.62,0,19.23,0,28.85,0,4.67,2.81,7.73,7.32,7.83q10.23.22,20.45,0a7.25,7.25,0,0,0,7.28-7.53c-.14-3.94-3.16-6.87-7.4-7a77.06,77.06,0,0,0-9.12.05C293.27,257.63,292.22,257,292.27,253.55Z"></path><path class="cls-2" d="M197.71,235.36c0-9.6.09-19.21,0-28.82-.06-4.6-3-7.59-7.09-7.68a7.06,7.06,0,0,0-7.38,7.36c-.12,19.46-.07,38.91,0,58.37a6.89,6.89,0,0,0,4.28,6.64c5.08,2.32,10.15-1.23,10.24-7.41.13-9.48,0-19,0-28.46Z"></path><path class="cls-1" d="M149.32,213.47c-8.22-.39-8.22-.39-8.2,7.79,0,9.05,0,9.05,8.8,7.92,5-.64,8.22-3.9,8.06-8.14S154.19,213.7,149.32,213.47Z"></path><path class="cls-1" d="M172.18,126.41c-2-.84-4.06-.59-6.11-.66a10,10,0,0,1-1.82,0c-2.78-.45-3.84.51-3.58,3.46.29,3.38.08,6.81.08,10.21,0,1.12-.11,2.26,1.59,2.19,3-.11,6.09.3,9.08-.49,3.49-.92,6.17-4,6.16-7.25C177.56,130.15,175.51,127.81,172.18,126.41Z"></path><path class="cls-1" d="M236.17,224.39l-7,18.33h13.86Z"></path></svg>